<svg version="1.2" baseProfile="tiny-ps" xmlns="http://www.w3.org/2000/svg" viewBox="0 0 424 424" width="424" height="424">
	<title>Create-Account-svg</title>
	<style>
		tspan { white-space:pre }
		.shp0 { fill: #f8fafb } 
		.shp1 { fill: #f0f0f1 } 
		.shp2 { fill: #ffffff } 
		.shp3 { fill: #43b97e } 
		.shp4 { fill: #000000 } 
		.shp5 { fill: #ffe00c } 
	</style>
	<g id="Layer">
		<g id="Layer">
			<path id="Layer" class="shp0" d="M410.19 212.02C410.19 325.06 318.55 416.7 205.51 416.7C92.47 416.7 0.84 325.06 0.84 212.02C0.84 98.99 92.47 7.35 205.51 7.35C318.55 7.35 410.19 98.99 410.19 212.02Z" />
			<path id="Layer" class="shp1" d="M371.51 212.03C371.51 303.7 297.19 378.02 205.51 378.02C113.84 378.02 39.52 303.7 39.52 212.03C39.52 120.35 113.84 46.03 205.51 46.03C297.19 46.03 371.51 120.35 371.51 212.03Z" />
		</g>
		<path id="Layer" class="shp2" d="M106.24 311.62C106.24 311.62 89.81 207.8 211.56 207.8C333.31 207.8 314.63 310.86 314.63 310.86L106.24 311.62Z" />
		<path id="Layer" class="shp2" d="M286.56 58.55L278.09 46.84L258.42 40.12L232.28 40.12L231.28 42.11C231.28 42.11 217.83 42.61 216.09 42.61C214.35 42.61 190.44 44.35 190.44 44.35L175.75 48.34L168.78 57.8L165.05 65.77L155.59 68.01L143.88 70.75L139.15 79.96L139.4 101.12L138.66 121.04L144.63 133.49L149.36 138.22C149.36 138.22 145.63 143.2 144.88 143.45C144.13 143.7 141.64 149.18 141.47 151.89C141.29 154.61 144.38 158.89 147.37 159.88C150.36 160.88 157.58 160.63 157.58 160.63L159.8 163.66L165.78 175.61L182.96 189.06L197.89 194.29L217.32 195.03C217.32 195.03 241.21 186.07 244.2 183.83C247.19 181.59 262.88 162.17 263.62 159.18C264.37 156.19 266.39 155.15 266.39 155.15L269.87 155.65L271.86 154.15C271.86 154.15 277.34 148.68 277.76 146.86C278.17 145.04 276.59 141.21 276.59 141.21L269.87 133.74L267.88 132L268.13 125.77L268.63 110.83L268.63 95.9L268.13 94.4L271.36 92.91C271.36 92.91 280.83 87.68 281.32 86.93C281.82 86.18 289.04 73.49 289.04 73.49L286.56 58.55ZM188.95 194.06C188.95 194.06 188.95 200.79 188.95 209.75C188.95 218.71 197.16 227.68 208.37 227.68C219.57 227.68 230.77 218.71 230.77 209C230.77 199.29 230.77 194.06 230.77 194.06C230.77 194.06 218.61 195.22 208.71 195.6C198.81 195.98 188.95 194.06 188.95 194.06Z" />
		<path id="Layer" class="shp3" d="M213.53 216.94C91.78 216.94 108.22 314.13 108.22 314.13L316.61 313.42C316.61 313.42 335.28 216.94 213.53 216.94ZM159.3 133.88C164.25 133.87 168.25 129.56 168.26 124.23L168.26 91.11L187.22 91.11L187.22 91.19L268.07 91.19C273.87 91.19 279.08 88.67 282.88 84.58C286.68 80.48 289.01 74.86 289.02 68.62C289.01 62.38 286.68 56.76 282.88 52.67C279.08 48.58 273.87 46.06 268.07 46.06L241.86 46.06L238.65 46.06L197.17 46.06C186.8 46.05 178.19 54.19 176.53 64.85C176.53 64.85 176.43 65.73 176.35 66.44C176.33 66.71 176.31 66.98 176.28 67.23C175.89 70.23 174.58 71.73 170.7 71.73C170.2 71.73 169.84 71.81 169.4 71.81L159.3 71.81C154.36 71.82 150.35 76.13 150.34 81.46L150.34 124.23C150.35 129.56 154.36 133.87 159.3 133.88Z" />
		<path id="Layer" class="shp4" d="M237.31 47.01C235.25 47.01 233.59 45.35 233.59 43.29C233.59 41.23 235.25 39.56 237.31 39.56C239.37 39.56 241.04 41.23 241.04 43.29C241.04 45.35 239.37 47.01 237.31 47.01Z" />
		<path id="Layer" class="shp4" d="M254.49 47.01C252.43 47.01 250.77 45.35 250.77 43.29C250.77 41.23 252.43 39.56 254.49 39.56C256.55 39.56 258.22 41.23 258.22 43.29C258.22 45.35 256.55 47.01 254.49 47.01Z" />
		<path id="Layer" class="shp5" d="M103.56 14.43C98.87 14.43 95.07 18.23 95.07 22.93C95.07 27.62 98.87 31.42 103.56 31.42C108.25 31.42 112.05 27.62 112.05 22.92C112.05 18.23 108.25 14.43 103.56 14.43ZM75.17 337.15C70.48 337.15 66.68 340.95 66.68 345.64C66.68 350.33 70.48 354.14 75.17 354.14C79.86 354.14 83.67 350.34 83.67 345.64C83.67 340.95 79.86 337.15 75.17 337.15ZM220.57 393.45C215.88 393.45 212.08 397.26 212.08 401.95C212.08 406.64 215.88 410.44 220.57 410.44C225.26 410.44 229.06 406.64 229.06 401.95C229.06 397.26 225.26 393.45 220.57 393.45ZM56.22 187.75C51.53 187.75 47.73 191.55 47.73 196.24C47.73 200.93 51.53 204.73 56.22 204.73C60.91 204.73 64.72 200.93 64.72 196.24C64.71 191.55 60.91 187.75 56.22 187.75Z" />
		<path id="Layer" fill-rule="evenodd" class="shp5" d="M425.23 198.84C411.59 200.54 400.67 211 398.27 224.41C395.87 211 384.96 200.54 371.32 198.84C384.96 197.14 395.87 186.69 398.27 173.28C400.67 186.69 411.59 197.14 425.23 198.84ZM176.39 390.56C169.13 391.47 163.31 397.03 162.03 404.17C160.76 397.03 154.94 391.47 147.68 390.56C154.95 389.66 160.76 384.09 162.03 376.95C163.31 384.09 169.13 389.66 176.39 390.56ZM57.68 313.2C57.68 315.26 56 316.94 53.94 316.94L35.81 316.94C33.75 316.94 32.08 315.26 32.08 313.2C32.08 311.14 33.75 309.47 35.81 309.47L53.94 309.47C56 309.47 57.68 311.14 57.68 313.2ZM358.55 313.61C358.55 315.67 356.88 317.34 354.81 317.34L64.99 317.34C62.93 317.34 61.26 315.67 61.26 313.61C61.26 311.55 62.93 309.88 64.99 309.88L101.27 309.88C101.05 307.71 100.77 304.13 100.77 299.54C100.78 288.94 102.23 272.97 109.37 256.96C116.49 240.96 129.49 224.94 152.02 214.88C161.55 210.61 172.76 207.4 185.91 205.63C185.91 202.99 185.91 200.67 185.91 198.84C185.91 197.46 185.91 196.36 185.91 195.59C180.23 193.05 175.33 189.64 171.2 185.72C163.95 178.86 158.98 170.56 155.75 162.65C155.43 162.83 155.08 162.96 154.7 163.05C153.69 163.27 152.68 163.37 151.68 163.37C145.13 163.37 139.27 158.83 137.82 152.19C137.6 151.19 137.49 150.17 137.49 149.17C137.49 143.86 140.47 139 145.14 136.58C139.67 133.85 135.9 128.2 135.9 121.66L135.9 80.82C135.9 71.61 143.37 64.14 152.58 64.14L162.87 64.14C165.01 50.22 177.02 39.56 191.54 39.56L237.52 39.56L237.52 47.03L191.54 47.03C180.87 47.03 172.02 54.79 170.31 64.97C170.31 64.97 170.2 65.81 170.13 66.48C170.11 66.75 170.08 67 170.05 67.24C169.65 70.11 168.31 71.54 164.32 71.54C163.8 71.54 163.43 71.61 162.98 71.61L152.59 71.61C147.5 71.62 143.38 75.74 143.37 80.83L143.37 121.66C143.38 126.75 147.5 130.86 152.59 130.87C157.67 130.86 161.79 126.75 161.8 121.66L161.8 90.04L181.31 90.04L181.31 90.11L264.48 90.11C270.44 90.11 275.8 87.71 279.71 83.8C283.62 79.89 286.02 74.53 286.02 68.57C286.02 62.61 283.62 57.25 279.71 53.34C275.8 49.43 270.44 47.03 264.48 47.03L253.95 47.03L253.95 39.56L264.48 39.56C280.51 39.56 293.49 52.55 293.5 68.57C293.49 84.59 280.51 97.58 264.48 97.58L169.27 97.58L169.27 121.65C169.27 129.35 164.06 135.82 156.98 137.75C157.78 138.43 158.28 139.44 158.28 140.57C158.26 145.71 160.03 154.71 164.33 163.57C168.62 172.46 175.35 181.25 185.07 186.8C191.57 190.51 199.41 192.85 209.07 192.86C225.89 192.83 237.89 185.48 246.47 176.18C255.01 166.91 259.84 155.57 261.45 148.69C261.91 146.75 262.11 145.16 262.1 144.31C262.1 139.08 262.1 130.3 262.1 122.83C262.1 115.36 262.1 109.22 262.1 109.2C262.1 107.14 263.77 105.47 265.84 105.47C267.9 105.47 269.57 107.14 269.57 109.2C269.57 109.22 269.57 115.36 269.57 122.83C269.57 125.54 269.57 128.41 269.57 131.23C276.49 132.32 281.55 138.29 281.55 145.23C281.55 145.74 281.52 146.24 281.47 146.75C280.68 154.04 274.54 159.44 267.37 159.44C266.86 159.44 266.36 159.41 265.85 159.36C265.83 159.35 265.8 159.35 265.77 159.34C264.73 161.88 263.48 164.54 261.97 167.26C256.8 176.58 248.76 186.57 237.1 193.15C236.48 193.5 235.84 193.84 235.2 194.17C235.2 194.23 235.21 194.29 235.21 194.35C235.21 194.37 235.21 198.28 235.21 205.62C247.73 207.3 258.45 210.29 267.61 214.24C282.3 220.58 292.95 229.44 300.51 239.23C315.63 258.86 318.39 281.87 318.4 296.49C318.4 302.76 317.88 307.52 317.56 309.88L354.81 309.88C356.87 309.88 358.55 311.55 358.55 313.61ZM72.83 173.83C72.83 166.5 78.77 160.56 86.1 160.56C93.43 160.56 99.37 166.5 99.37 173.83C99.37 181.16 93.43 187.1 86.1 187.1C78.77 187.1 72.83 181.16 72.83 173.83ZM393.83 313.34C393.83 315.4 392.16 317.07 390.1 317.07L371.97 317.07C369.91 317.07 368.24 315.4 368.24 313.34C368.24 311.27 369.91 309.6 371.97 309.6L390.1 309.6C392.16 309.6 393.83 311.27 393.83 313.34ZM199.63 119.58L181.72 119.58C180.35 119.58 179.23 118.46 179.23 117.09C179.23 115.71 180.35 114.6 181.72 114.6L199.63 114.6C201 114.6 202.12 115.71 202.12 117.09C202.12 118.46 201 119.58 199.63 119.58ZM240.97 119.58L223.07 119.58C221.69 119.58 220.58 118.46 220.58 117.08C220.58 115.71 221.69 114.6 223.07 114.6L240.97 114.6C242.35 114.6 243.46 115.71 243.46 117.08C243.46 118.46 242.35 119.58 240.97 119.58ZM368.73 91.55C368.73 98.88 362.79 104.82 355.46 104.82C348.13 104.82 342.19 98.88 342.19 91.55C342.19 84.22 348.13 78.28 355.46 78.28C362.79 78.28 368.73 84.22 368.73 91.55ZM185.34 133.28C185.34 130.06 187.95 127.44 191.17 127.44C194.39 127.44 197.01 130.05 197.01 133.28C197.01 136.5 194.39 139.11 191.17 139.11C187.95 139.11 185.34 136.5 185.34 133.28ZM231.52 127.44C234.75 127.44 237.36 130.05 237.36 133.28C237.36 136.5 234.75 139.11 231.52 139.11C228.3 139.11 225.69 136.5 225.69 133.28C225.69 130.05 228.31 127.44 231.52 127.44ZM310.93 296.48C310.94 286.22 309.43 271.6 302.91 257.54C296.36 243.47 284.99 229.91 264.65 221.1C256.32 217.5 246.45 214.71 234.76 213.1C234.36 214.86 233.69 216.55 232.82 218.12C231.33 220.8 229.27 223.16 226.85 225.15C222 229.12 215.67 231.68 209.07 231.7C202.46 231.7 196.65 229.04 192.55 225.04C189.21 221.78 186.92 217.61 186.17 213.13C173.97 214.84 163.71 217.83 155.07 221.69C141.2 227.91 131.49 236.36 124.58 245.64C110.76 264.15 108.22 286.3 108.24 299.54C108.24 304.46 108.58 308.12 108.78 309.88L150.06 309.88L150.06 292.7C150.06 290.64 151.73 288.97 153.8 288.97C155.86 288.97 157.53 290.63 157.53 292.7L157.53 309.88L260.61 309.88L260.61 282.49C260.61 280.43 262.28 278.76 264.34 278.76C266.4 278.76 268.08 280.43 268.08 282.49L268.08 309.88L310.01 309.88C310.04 309.73 310.07 309.54 310.1 309.3C310.19 308.68 310.31 307.75 310.44 306.55C310.68 304.15 310.93 300.69 310.93 296.48ZM196.32 156.83C196.32 155.46 197.44 154.34 198.81 154.34C200.19 154.34 201.3 155.46 201.3 156.83C201.31 161.98 205.48 166.15 210.62 166.15C215.77 166.14 219.94 161.98 219.95 156.83C219.95 155.46 221.06 154.34 222.44 154.34C223.81 154.34 224.93 155.46 224.93 156.83C224.92 164.73 218.52 171.13 210.62 171.13C202.72 171.13 196.32 164.73 196.32 156.83ZM74.79 60.62C74.79 53.29 80.73 47.35 88.06 47.35C95.39 47.35 101.33 53.29 101.33 60.62C101.33 67.95 95.39 73.89 88.06 73.89C80.73 73.89 74.79 67.95 74.79 60.62ZM268.33 151.9C271.29 151.46 273.72 149.08 274.04 145.97C274.07 145.72 274.08 145.47 274.08 145.24C274.08 142.37 272.23 139.83 269.57 138.91C269.57 140.93 269.57 142.78 269.57 144.31C269.56 146.41 269.14 148.94 268.33 151.9ZM153.31 155.71C151.85 150.76 151.06 146.21 150.86 142.42C150.67 142.5 150.47 142.56 150.26 142.61C147.11 143.29 144.96 146.09 144.96 149.17C144.96 149.64 145.01 150.12 145.12 150.61C145.79 153.75 148.59 155.9 151.67 155.9C152.15 155.9 152.63 155.85 153.11 155.75C153.18 155.73 153.25 155.72 153.31 155.71ZM193.38 204.8C198.8 204.32 204.52 204.06 210.56 204.06C216.61 204.06 222.33 204.31 227.74 204.79C227.74 201.58 227.74 199.08 227.74 197.33C222.13 199.23 215.9 200.33 209.07 200.33C209.03 200.33 209 200.33 208.96 200.33C203.32 200.33 198.13 199.59 193.38 198.28C193.38 200.01 193.38 202.23 193.38 204.8ZM210.56 211.54C204.56 211.54 198.92 211.79 193.61 212.28C194.14 214.92 195.57 217.57 197.76 219.69C200.57 222.41 204.48 224.23 209.07 224.23C212.52 224.24 216.12 223.18 219.21 221.38C222.31 219.6 224.85 217.1 226.29 214.49C226.7 213.75 227.02 213 227.26 212.25C222.03 211.78 216.47 211.53 210.56 211.54ZM157.65 280.94C157.65 283.03 155.96 284.73 153.86 284.73C151.77 284.73 150.07 283.03 150.07 280.94C150.07 278.85 151.77 277.15 153.86 277.15C155.96 277.15 157.65 278.85 157.65 280.94Z" />
	</g>
</svg>