<?xml version="1.0" standalone="no"?>
<!DOCTYPE svg PUBLIC "-//W3C//DTD SVG 20010904//EN"
 "http://www.w3.org/TR/2001/REC-SVG-20010904/DTD/svg10.dtd">
<svg version="1.0" xmlns="http://www.w3.org/2000/svg"
 width="4000.000000pt" height="5091.000000pt" viewBox="0 0 4000.000000 5091.000000"
 preserveAspectRatio="xMidYMid meet">

<g transform="translate(0.000000,5091.000000) scale(0.100000,-0.100000)"
fill="#000000" stroke="none">
<path d="M12275 44215 l-7710 -3193 -3 -79 -3 -79 -195 -79 c-143 -58 -191
-81 -178 -87 11 -4 2093 -358 4629 -788 2536 -430 4617 -784 4626 -788 14 -6
-10 -153 -192 -1192 -114 -652 -221 -1259 -237 -1350 l-29 -166 86 23 c841
226 2420 390 4441 463 1208 43 2946 43 4170 0 1956 -69 3475 -223 4358 -441
90 -23 165 -39 167 -37 2 2 -102 606 -231 1343 -129 736 -233 1344 -231 1349
2 5 2090 364 4641 797 2551 433 4639 789 4641 791 2 2 -3419 1375 -7602 3053
-4182 1677 -7606 3052 -7608 3056 -2 3 37 22 87 42 l91 37 7591 -3045 c4175
-1674 7616 -3055 7646 -3068 30 -13 88 -36 128 -51 l72 -26 -2 161 -3 160
-7705 3191 c-4238 1754 -7712 3192 -7720 3193 -8 2 -3484 -1434 -7725 -3190z"/>
<path d="M19130 36213 c-2768 -18 -5227 -231 -6199 -538 l-80 -25 -10 -53
c-24 -120 -162 -919 -159 -922 9 -8 397 -130 538 -168 279 -77 1066 -267 1103
-267 4 0 7 177 7 394 l0 394 38 6 c180 28 748 86 1182 121 466 37 1386 92
1394 84 10 -11 29 -4215 56 -12694 17 -5219 33 -9562 36 -9651 l6 -161 176
-42 c1025 -246 2063 -314 3162 -205 457 45 938 124 1415 234 322 74 295 63
295 114 l0 43 -86 -19 c-47 -11 -88 -18 -91 -14 -6 5 120 18108 126 18124 1 1
12 2 26 2 l25 0 0 2141 0 2140 93 -6 c50 -3 225 -12 387 -20 359 -19 813 -49
1135 -75 282 -24 838 -78 878 -86 l27 -6 0 -434 c0 -383 2 -434 15 -434 41 0
820 177 1105 251 380 99 780 223 780 243 1 6 -37 226 -82 489 l-83 477 -85 26
c-845 260 -2595 443 -4895 514 -497 15 -1643 27 -2235 23z"/>
<path d="M19015 8300 c-273 -10 -585 -32 -860 -61 -234 -24 -640 -81 -640 -90
0 -9 1948 -2489 1954 -2489 9 1 1940 2467 1943 2481 7 32 -733 119 -1272 149
-260 14 -863 20 -1125 10z"/>
</g>
</svg>
