<svg version="1.2" baseProfile="tiny-ps" xmlns="http://www.w3.org/2000/svg" viewBox="0 0 424 424" width="424" height="424">
	<title>Get-Paid-svg</title>
	<style>
		tspan { white-space:pre }
		.shp0 { fill: #f8fafb } 
		.shp1 { fill: #f0f0f1 } 
		.shp2 { fill: #ffe00c } 
		.shp3 { fill: #43b97e } 
		.shp4 { fill: #ffffff } 
		.shp5 { fill: #000000 } 
	</style>
	<g id="Layer">
		<g id="Layer">
			<path id="Layer" class="shp0" d="M421.29 212.73C421.29 328.14 327.73 421.7 212.32 421.7C96.91 421.7 3.35 328.14 3.35 212.73C3.35 97.32 96.91 3.76 212.32 3.76C327.73 3.76 421.29 97.32 421.29 212.73Z" />
			<path id="Layer" class="shp1" d="M381.79 212.73C381.79 306.33 305.92 382.21 212.32 382.21C118.72 382.21 42.84 306.33 42.84 212.73C42.84 119.13 118.72 43.26 212.32 43.26C305.92 43.26 381.79 119.13 381.79 212.73Z" />
		</g>
		<path id="Layer" class="shp2" d="M251.56 38.18C246.77 38.18 242.89 34.31 242.89 29.51C242.89 24.72 246.77 20.84 251.56 20.84C256.36 20.84 260.23 24.72 260.23 29.51C260.23 34.31 256.36 38.18 251.56 38.18Z" />
		<path id="Layer" class="shp2" d="M79.24 357.82C74.45 357.82 70.57 353.95 70.57 349.15C70.57 344.35 74.45 340.48 79.24 340.48C84.04 340.48 87.91 344.35 87.91 349.15C87.91 353.95 84.04 357.82 79.24 357.82Z" />
		<path id="Layer" class="shp2" d="M316.64 357.47C311.84 357.47 307.97 353.59 307.97 348.8C307.97 344 311.84 340.13 316.64 340.13C321.43 340.13 325.31 344 325.31 348.8C325.31 353.59 321.43 357.47 316.64 357.47Z" />
		<path id="Layer" class="shp2" d="M54.3 180.54C49.5 180.54 45.63 176.66 45.63 171.87C45.63 167.07 49.5 163.2 54.3 163.2C59.09 163.2 62.97 167.07 62.97 171.87C62.97 176.66 59.09 180.54 54.3 180.54Z" />
		<path id="Layer" class="shp3" d="M353.26 95.55C339.33 93.82 328.19 83.15 325.74 69.45C323.29 83.15 312.14 93.82 298.22 95.55C312.14 97.29 323.29 107.96 325.74 121.65C328.19 107.96 339.33 97.29 353.26 95.55ZM345.11 312.88C337.63 312.88 331.56 318.94 331.56 326.43C331.56 333.91 337.63 339.98 345.11 339.98C352.59 339.98 358.66 333.91 358.66 326.43C358.66 318.94 352.6 312.88 345.11 312.88ZM45.48 119.68C37.99 119.68 31.93 125.75 31.93 133.23C31.93 140.71 37.99 146.78 45.48 146.78C52.96 146.78 59.02 140.71 59.02 133.23C59.02 125.75 52.96 119.68 45.48 119.68ZM400.02 203.06C392.54 203.06 386.47 209.13 386.47 216.61C386.47 224.09 392.54 230.16 400.02 230.16C407.5 230.16 413.57 224.09 413.57 216.61C413.57 209.13 407.5 203.06 400.02 203.06ZM167.93 381.11C166.62 388.41 160.69 394.09 153.28 395.01C160.69 395.94 166.62 401.61 167.93 408.91C169.23 401.62 175.17 395.94 182.58 395.01C175.17 394.09 169.23 388.41 167.93 381.11Z" />
		<g id="Layer">
			<g id="Layer">
				<path id="Layer" class="shp4" d="M294.12 152.65L121.89 152.65C114.05 152.65 107.69 159 107.69 166.84L107.69 282.25L125.73 292.99L167.24 293.24L169.69 319.86L247.36 318.88L247.36 293.7L292.79 293.97L308.32 283.22L308.32 249.03L332.36 247.56L330.4 215.81L308.32 211.9L308.32 166.84C308.32 159 301.96 152.65 294.12 152.65Z" />
				<path id="Layer" class="shp2" d="M122.15 275C122.15 282.02 127.84 287.72 134.87 287.72L289.14 287.72C296.16 287.72 301.86 282.02 301.86 275L301.86 263.87L122.15 263.87L122.15 275Z" />
			</g>
			<path id="Layer" class="shp4" d="M186.94 117.83C171.16 117.83 158.41 105.08 158.41 89.3C158.41 73.53 171.16 60.78 186.94 60.78C202.71 60.78 215.46 73.53 215.46 89.3C215.46 105.08 202.71 117.83 186.94 117.83Z" />
			<path id="Layer" class="shp3" d="M190.28 122.03C174.51 122.03 161.76 109.28 161.76 93.5C161.76 77.73 174.51 64.98 190.28 64.98C206.06 64.98 218.81 77.73 218.81 93.5C218.81 109.28 206.06 122.03 190.28 122.03Z" />
			<g id="Layer">
				<path id="Layer" class="shp2" d="M108.51 247.41C110.94 247.41 112.91 245.44 112.91 243.01C112.91 240.58 110.94 238.61 108.51 238.61C106.08 238.61 104.11 240.58 104.11 243.01C104.11 245.44 106.08 247.41 108.51 247.41Z" />
				<g id="Layer">
					<path id="Layer" fill-rule="evenodd" class="shp2" d="M156.23 231.52C137.07 231.52 121.49 215.93 121.49 196.78C121.49 177.63 137.07 162.04 156.23 162.04C175.38 162.04 190.97 177.63 190.97 196.78C190.97 215.93 175.38 231.52 156.23 231.52ZM156.23 222.84C170.6 222.84 182.28 211.15 182.28 196.78C182.28 182.41 170.6 170.72 156.23 170.72C141.85 170.72 130.17 182.41 130.17 196.78C130.17 211.15 141.85 222.84 156.23 222.84Z" />
					<path id="Layer" fill-rule="evenodd" class="shp2" d="M151.88 88.21C151.88 69.05 167.47 53.47 186.63 53.47C205.78 53.47 221.37 69.05 221.37 88.21C221.37 107.37 205.78 122.95 186.63 122.95C167.47 122.95 151.88 107.36 151.88 88.21ZM160.57 88.21C160.57 102.58 172.26 114.27 186.63 114.27C200.99 114.27 212.68 102.58 212.68 88.21C212.68 73.84 201 62.15 186.63 62.15C172.25 62.15 160.57 73.84 160.57 88.21Z" />
					<path id="Layer" fill-rule="evenodd" class="shp3" d="M338.73 209.8L334.28 209.8L334.28 248.88L339.06 248.88C341.22 248.88 342.97 250.63 342.97 252.79L342.97 253.49C342.97 255.74 341.14 257.56 338.89 257.56L325.59 257.56L325.59 250.55L317.52 253.22L312.57 253.21L312.57 274.95C312.57 286.94 302.84 296.67 290.85 296.67L251.77 296.67L251.77 314.04L256.08 314.04C258.5 314.04 260.45 315.99 260.45 318.4L260.45 318.42C260.45 320.8 258.54 322.72 256.17 322.72C239.25 322.72 177.26 322.72 160.45 322.72C158.11 322.72 156.23 320.83 156.23 318.46L156.23 318.35C156.23 315.97 158.16 314.04 160.54 314.04L164.91 314.04L164.91 296.67L125.82 296.67C113.83 296.67 104.11 286.94 104.11 274.95L104.11 256.03C104.11 253.72 105.99 251.84 108.3 251.84L108.58 251.84C110.91 251.84 112.8 253.73 112.8 256.06L112.8 261.93L303.88 261.93L303.88 253.2L298.29 253.19C295.97 253.19 294.08 251.3 294.08 248.98C294.08 246.52 296.07 244.53 298.53 244.53L316.11 244.53L325.59 241.4L325.59 218.48L302.48 218.48L288.81 209.37L253.7 197.04C252.47 196.63 251.15 196.71 249.99 197.29C248.83 197.88 247.98 198.89 247.6 200.14C246.94 202.3 247.91 204.63 249.9 205.69L274.18 218.59L257.04 227.16L215.82 227.16L200.91 219.01C199.98 218.49 198.9 218.39 197.9 218.74C196.89 219.08 196.09 219.8 195.65 220.77C194.8 222.64 195.58 224.81 197.42 225.72L218.34 236.04L260.79 244.53L270.29 244.53C272.45 244.53 274.18 246.27 274.18 248.42L274.18 249C274.18 251.29 272.33 253.15 270.04 253.15L259.5 253.13L215.01 244.08L193.57 233.5C187.51 230.51 184.94 223.34 187.73 217.18C189.16 214.03 191.86 211.6 195.14 210.5C198.42 209.41 202.04 209.73 205.06 211.38L214.59 216.59L213.37 212.94C212.79 211.21 212.49 209.37 212.7 207.56C213.47 201.07 218.86 196.76 224.72 196.76C229.69 196.76 234.09 199.73 235.94 204.34L241.55 218.4L255.22 218.36L245.83 213.36C240.18 210.37 237.42 203.75 239.28 197.63C240.35 194.09 242.75 191.22 246.05 189.55C249.34 187.89 253.08 187.63 256.57 188.86L293.17 201.84L303.88 208.98L303.88 170.72C303.88 163.53 298.05 157.7 290.85 157.7L277.47 157.7C271.45 168.06 260.25 175.07 247.43 175.07C234.6 175.07 223.4 168.06 217.38 157.7L125.83 157.7C118.63 157.7 112.8 163.53 112.8 170.72L112.8 227.83C112.8 229.92 111.13 231.62 109.04 231.65L108.98 231.65C106.3 231.69 104.11 229.54 104.11 226.86L104.11 170.72C104.11 158.73 113.83 149.01 125.83 149.01L213.83 149.01C213.1 146.22 212.68 143.33 212.68 140.32C212.68 121.29 228.07 105.77 247.07 105.58C263.44 105.42 277.7 117.18 281.35 133.15C282.64 138.78 282.3 144.07 281.02 149.01L290.85 149.01C302.84 149.01 312.56 158.73 312.56 170.72L312.56 209.79L325.59 209.79L325.59 201.1L338.82 201.1C341.11 201.1 342.97 202.96 342.97 205.25L342.97 205.55C342.97 207.89 341.07 209.79 338.73 209.79L338.73 209.8ZM244.76 114.4C232.57 115.62 222.72 125.47 221.5 137.66C219.86 154.12 233.63 167.89 250.09 166.25C262.28 165.03 272.13 155.18 273.35 142.99C274.99 126.53 261.22 112.76 244.76 114.4ZM232.21 218.43L227.87 207.57C226.94 205.26 223.43 204.81 221.97 206.86C221.33 207.76 221.16 208.87 221.51 209.92L224.38 218.45L232.21 218.43ZM243.08 314.04L243.08 296.66L173.6 296.66L173.6 314.04L243.08 314.04ZM303.88 270.61L112.8 270.61L112.8 274.95C112.8 282.14 118.63 287.97 125.83 287.97L290.85 287.97C298.05 287.97 303.88 282.14 303.88 274.95L303.88 270.61Z" />
					<path id="Layer" class="shp4" d="M183.51 95.99L185.93 103.59C186.8 106.33 188.84 106.89 191.63 106.89C193.06 106.89 194.18 106.72 195.26 106.36L195.64 106.24L195.64 103.47L191.36 102.99L189.05 96.43C188.11 93.7 187.16 91.86 185.38 90.8C188.72 89.69 190.82 87.31 191.39 83.94L195.5 83.94L195.5 80.37L191.4 80.37C191.16 79.08 190.63 77.93 189.81 76.94L195.5 76.94L195.5 73.36L175.24 73.36L175.24 76.94L180.24 76.94C183.34 76.94 185.19 78.09 185.76 80.37L175.24 80.37L175.24 83.94L185.77 83.94C185.18 86.94 183.15 88.46 179.74 88.46L175.24 88.46L175.24 92.04L177.58 92.04C181.19 92.04 182.41 92.55 183.51 95.99Z" />
					<path id="Layer" class="shp5" d="M161.13 215.07C162.55 215.07 163.67 214.9 164.75 214.55L165.13 214.42L165.13 211.64L160.86 211.17L158.54 204.61C157.6 201.88 156.66 200.04 154.87 198.98C158.21 197.88 160.31 195.5 160.88 192.13L164.98 192.13L164.98 188.55L160.89 188.55C160.65 187.26 160.12 186.11 159.3 185.12L164.98 185.12L164.98 181.55L144.73 181.55L144.73 185.12L149.73 185.12C152.83 185.12 154.68 186.27 155.25 188.55L144.73 188.55L144.73 192.13L155.26 192.13C154.67 195.13 152.64 196.64 149.23 196.64L144.73 196.64L144.73 200.22L147.06 200.22C150.68 200.22 151.9 200.74 153 204.17L155.42 211.77C156.29 214.51 158.33 215.07 161.13 215.07Z" />
					<path id="Layer" class="shp2" d="M249.51 148.18C248.57 145.45 247.62 143.61 245.83 142.54C249.18 141.44 251.28 139.06 251.84 135.69L255.95 135.69L255.95 132.11L251.86 132.11C251.62 130.83 251.09 129.68 250.26 128.69L255.95 128.69L255.95 125.11L235.7 125.11L235.7 128.69L240.69 128.69C243.79 128.69 245.64 129.84 246.21 132.11L235.7 132.11L235.7 135.69L246.22 135.69C245.63 138.69 243.61 140.21 240.2 140.21L235.7 140.21L235.7 143.79L238.03 143.79C241.65 143.79 242.86 144.3 243.96 147.74L246.38 155.34C247.25 158.08 249.29 158.64 252.09 158.64C253.52 158.64 254.64 158.47 255.72 158.11L256.1 157.99L256.1 155.22L251.82 154.74L249.51 148.18Z" />
				</g>
			</g>
			<path id="Layer" class="shp2" d="M181.25 296.52L243.33 296.52L243.33 311.47L181.25 311.47L181.25 296.52Z" />
		</g>
	</g>
</svg>