<svg version="1.2" baseProfile="tiny-ps" xmlns="http://www.w3.org/2000/svg" viewBox="0 0 424 424" width="424" height="424">
	<title>Get-questions-svg</title>
	<style>
		tspan { white-space:pre }
		.shp0 { fill: #f8fafb } 
		.shp1 { fill: #f0f0f1 } 
		.shp2 { fill: #ffffff } 
		.shp3 { fill: #ffe00c } 
		.shp4 { fill: #43b97e } 
	</style>
	<path id="Layer" class="shp0" d="M413.27 212.67C413.27 324.52 322.59 415.2 210.74 415.2C98.89 415.2 8.22 324.52 8.22 212.67C8.22 100.82 98.89 10.15 210.74 10.15C322.6 10.15 413.27 100.82 413.27 212.67Z" />
	<path id="Layer" class="shp1" d="M374.99 212.67C374.99 303.39 301.46 376.92 210.74 376.92C120.03 376.92 46.49 303.39 46.49 212.67C46.49 121.96 120.03 48.43 210.74 48.43C301.46 48.43 374.99 121.96 374.99 212.67Z" />
	<path id="Layer" class="shp2" d="M316.54 194.21L267.07 194.21L267.07 179.83C267.07 158.9 251.01 141.66 230.56 139.78C230.51 139.76 230.46 139.75 230.41 139.74C234.84 134.8 237.54 128.27 237.54 121.13L237.54 82.48C237.54 79.87 235.42 77.75 232.81 77.75L204.07 77.75C191.72 77.75 181.67 87.8 181.67 100.15L181.67 121.13C181.67 128.27 184.37 134.8 188.8 139.74C188.75 139.75 188.7 139.76 188.65 139.78C168.2 141.66 152.14 158.9 152.14 179.84L152.14 194.22L102.67 194.22C94.84 194.22 88.47 200.58 88.47 208.41L88.47 305.83C88.47 313.05 93.9 319.03 100.89 319.9C101.47 319.98 102.07 320.02 102.67 320.02L105.26 320.02L105.26 320.09L306.04 320.09L306.04 320.02L316.54 320.02C317.15 320.02 317.73 319.98 318.32 319.9C325.31 319.03 330.74 313.05 330.74 305.83L330.74 208.41C330.74 200.58 324.37 194.21 316.54 194.21Z" />
	<path id="Layer" class="shp3" d="M173.5 369.8C168.86 369.8 165.09 373.56 165.09 378.2C165.09 382.84 168.86 386.6 173.5 386.6C178.14 386.6 181.9 382.84 181.9 378.2C181.9 373.56 178.14 369.8 173.5 369.8ZM67.06 81.52C62.42 81.52 58.66 85.28 58.66 89.92C58.66 94.56 62.42 98.32 67.06 98.32C71.71 98.32 75.47 94.56 75.47 89.92C75.47 85.28 71.71 81.52 67.06 81.52ZM387.32 250.87C382.67 250.87 378.91 254.63 378.91 259.27C378.91 263.91 382.67 267.68 387.32 267.68C391.96 267.68 395.72 263.91 395.72 259.27C395.72 254.63 391.96 250.87 387.32 250.87ZM42.39 274.52C37.75 274.52 33.99 278.28 33.99 282.93C33.99 287.57 37.75 291.33 42.39 291.33C47.03 291.33 50.79 287.56 50.79 282.93C50.79 278.28 47.03 274.52 42.39 274.52ZM235.01 151.65L216.62 170.05C215.68 170.99 214.44 171.46 213.2 171.46C211.96 171.46 210.73 170.99 209.78 170.05L191.39 151.65C176.04 153.72 164.16 166.89 164.16 182.8L164.16 197.43L262.24 197.43L262.24 182.8C262.24 166.89 250.36 153.72 235.01 151.65ZM232.07 97.92L232.07 88.18L207.54 88.18C200.26 88.18 194.33 94.11 194.33 101.4L194.33 106.77L223.22 106.77C228.1 106.77 232.07 102.8 232.07 97.92Z" />
	<path id="Layer" fill-rule="evenodd" class="shp4" d="M265.05 50.54C278.55 48.86 289.35 38.52 291.73 25.25C294.1 38.52 304.9 48.86 318.4 50.54C304.9 52.23 294.1 62.57 291.73 75.84C289.35 62.57 278.55 52.23 265.05 50.54ZM216.71 406.07C216.71 413.32 210.83 419.2 203.58 419.2C196.32 419.2 190.45 413.32 190.45 406.07C190.45 398.82 196.32 392.94 203.58 392.94C210.83 392.94 216.71 398.82 216.71 406.07ZM224.4 18.47C224.4 11.22 230.28 5.34 237.53 5.34C244.79 5.34 250.67 11.22 250.67 18.47C250.67 25.73 244.79 31.6 237.53 31.6C230.28 31.6 224.4 25.73 224.4 18.47ZM73.26 247.45C73.26 254.7 67.38 260.58 60.13 260.58C52.88 260.58 47 254.7 47 247.45C47 240.19 52.88 234.31 60.13 234.31C67.38 234.31 73.26 240.19 73.26 247.45ZM372.28 283.12C365.1 284.02 359.35 289.53 358.08 296.59C356.82 289.52 351.07 284.02 343.88 283.12C351.06 282.23 356.82 276.72 358.08 269.65C359.35 276.72 365.1 282.23 372.28 283.12ZM334.07 207.53L334.07 307.05C334.07 315.04 327.57 321.55 319.57 321.55L275.34 321.55C272.67 321.55 270.51 319.38 270.51 316.71C270.51 314.04 272.67 311.88 275.34 311.88L319.57 311.88C322.24 311.88 324.41 309.71 324.41 307.05L324.41 207.53C324.41 204.86 322.24 202.69 319.57 202.69L101.09 202.69C98.42 202.69 96.25 204.86 96.25 207.53L96.25 307.04C96.25 309.71 98.42 311.88 101.09 311.88L233.05 311.88C235.72 311.88 237.88 314.04 237.88 316.71C237.88 319.38 235.72 321.54 233.05 321.54L101.09 321.54C93.09 321.54 86.59 315.04 86.59 307.04L86.59 207.53C86.59 199.53 93.09 193.03 101.09 193.03L151.63 193.03L151.63 178.34C151.63 156.96 168.04 139.34 188.93 137.42C188.97 137.4 189.03 137.39 189.07 137.38C184.55 132.33 181.79 125.67 181.79 118.37L181.79 96.94C181.79 84.32 192.06 74.06 204.67 74.06L234.03 74.06C236.7 74.06 238.87 76.22 238.87 78.89L238.87 118.37C238.87 125.67 236.11 132.33 231.59 137.38C231.63 137.4 231.68 137.41 231.73 137.42C252.62 139.34 269.03 156.96 269.03 178.34L269.03 193.03L319.57 193.03C327.57 193.03 334.07 199.53 334.07 207.53ZM229.2 118.37L229.2 109.72C226.57 111.16 223.55 111.98 220.35 111.98L191.46 111.98L191.46 118.37C191.46 128.77 199.93 137.24 210.33 137.24C220.73 137.24 229.2 128.77 229.2 118.37ZM201.9 146.9L210.33 155.33L218.76 146.9L201.9 146.9ZM191.46 96.94L191.46 102.31L220.35 102.31C225.23 102.31 229.2 98.34 229.2 93.46L229.2 83.73L204.67 83.73C197.39 83.73 191.46 89.65 191.46 96.94L191.46 96.94ZM259.37 178.34C259.37 162.43 247.49 149.26 232.14 147.19L213.75 165.59C212.81 166.53 211.57 167 210.33 167C209.09 167 207.86 166.53 206.91 165.59L188.52 147.19C173.17 149.26 161.29 162.43 161.29 178.34L161.29 192.97L259.37 192.97L259.37 178.34ZM258.22 313.29C259.12 314.19 259.64 315.44 259.64 316.71C259.64 317.98 259.12 319.23 258.22 320.13C257.32 321.02 256.07 321.54 254.8 321.54C253.53 321.54 252.28 321.02 251.38 320.13C250.48 319.23 249.97 317.98 249.97 316.71C249.97 315.44 250.48 314.19 251.38 313.29C252.28 312.39 253.53 311.88 254.8 311.88C256.07 311.88 257.32 312.39 258.22 313.29ZM240.3 229.67L240.3 285.75C240.3 291.07 235.96 295.41 230.63 295.41L190.03 295.41C184.7 295.41 180.36 291.07 180.36 285.75L180.36 273.69C180.36 271.02 182.53 268.86 185.19 268.86C187.86 268.86 190.03 271.02 190.03 273.69L190.03 285.75L230.63 285.75L230.63 229.67L190.03 229.67L190.03 237.11C190.03 239.78 187.86 241.95 185.19 241.95C182.52 241.95 180.36 239.78 180.36 237.11L180.36 229.67C180.36 224.34 184.7 220.01 190.03 220.01L230.63 220.01C235.96 220.01 240.3 224.34 240.3 229.67ZM181.78 259.25C180.88 258.35 180.36 257.1 180.36 255.83C180.36 254.56 180.88 253.31 181.78 252.41C182.68 251.51 183.92 251 185.19 251C186.47 251 187.71 251.51 188.61 252.41C189.51 253.31 190.03 254.55 190.03 255.83C190.03 257.1 189.51 258.35 188.61 259.25C187.71 260.14 186.47 260.66 185.19 260.66C183.92 260.66 182.68 260.15 181.78 259.25ZM305.07 295.41L264.47 295.41C259.14 295.41 254.8 291.07 254.8 285.75L254.8 229.67C254.8 224.34 259.14 220.01 264.47 220.01L305.07 220.01C310.4 220.01 314.74 224.34 314.74 229.67L314.74 285.75C314.74 291.07 310.4 295.41 305.07 295.41ZM264.47 285.75L305.07 285.75C305.08 285.75 305.08 285.74 305.08 285.74L305.07 229.67L264.47 229.67L264.47 285.75ZM156.19 220.01C161.52 220.01 165.86 224.34 165.86 229.67L165.86 285.75C165.86 291.07 161.52 295.41 156.19 295.41L115.59 295.41C110.26 295.41 105.92 291.07 105.92 285.75L105.92 229.67C105.92 224.34 110.26 220.01 115.59 220.01L156.19 220.01ZM156.2 285.74L156.19 229.67L115.59 229.67L115.59 285.75L156.19 285.75C156.2 285.75 156.2 285.74 156.2 285.74ZM197.34 267.36C197.34 264.69 199.5 262.53 202.17 262.53L218.61 262.53C221.28 262.53 223.44 264.69 223.44 267.36C223.44 270.03 221.28 272.19 218.61 272.19L202.17 272.19C199.5 272.19 197.34 270.03 197.34 267.36ZM197.34 248.06C197.34 245.39 199.5 243.22 202.17 243.22L218.61 243.22C221.28 243.22 223.44 245.39 223.44 248.06C223.44 250.73 221.28 252.89 218.61 252.89L202.17 252.89C199.5 252.89 197.34 250.73 197.34 248.06ZM297.94 267.36C297.94 270.03 295.78 272.19 293.11 272.19L276.67 272.19C274 272.19 271.84 270.03 271.84 267.36C271.84 264.69 274 262.53 276.67 262.53L293.11 262.53C295.78 262.53 297.94 264.69 297.94 267.36ZM297.94 248.06C297.94 250.73 295.78 252.89 293.11 252.89L276.67 252.89C274 252.89 271.84 250.73 271.84 248.06C271.84 245.39 274 243.22 276.67 243.22L293.11 243.22C295.78 243.22 297.94 245.39 297.94 248.06ZM148.94 267.36C148.94 270.03 146.78 272.19 144.11 272.19L127.67 272.19C125 272.19 122.84 270.03 122.84 267.36C122.84 264.69 125 262.53 127.67 262.53L144.11 262.53C146.78 262.53 148.94 264.69 148.94 267.36ZM148.94 248.06C148.94 250.73 146.78 252.89 144.11 252.89L127.67 252.89C125 252.89 122.84 250.73 122.84 248.06C122.84 245.39 125 243.22 127.67 243.22L144.11 243.22C146.78 243.22 148.94 245.39 148.94 248.06Z" />
</svg>