<?xml version="1.0" encoding="utf-8"?>
<!-- Generator: Adobe Illustrator 24.2.1, SVG Export Plug-In . SVG Version: 6.00 Build 0)  -->
<svg version="1.1" id="Layer_1" xmlns="http://www.w3.org/2000/svg" xmlns:xlink="http://www.w3.org/1999/xlink" x="0px" y="0px"
	 viewBox="0 0 485 485" style="enable-background:new 0 0 485 485;" xml:space="preserve">
<style type="text/css">
	.st0{fill:#00919B;}
</style>
<g>
	<path class="st0" d="M100,286.7h36.9v45.2h30v-45.2h102.4c6.9,33.4,36.6,58.6,72.1,58.6c40.6,0,73.6-33,73.6-73.6
		S382,198,341.4,198c-35.5,0-65.2,25.2-72.1,58.6H70v75.2h30V286.7z M341.4,228.1c24.1,0,43.6,19.6,43.6,43.6s-19.6,43.6-43.6,43.6
		s-43.6-19.6-43.6-43.6S317.3,228.1,341.4,228.1z"/>
	<path class="st0" d="M314,91V44H171V91H12v351h461V91H314z M189,61H298V91H189V61z M455,424H30V109h425V424z"/>
</g>
</svg>
