<?xml version="1.0" encoding="utf-8"?>
<!-- Generator: Adobe Illustrator 24.1.3, SVG Export Plug-In . SVG Version: 6.00 Build 0)  -->
<svg version="1.1" id="Layer_1" xmlns="http://www.w3.org/2000/svg" xmlns:xlink="http://www.w3.org/1999/xlink" x="0px" y="0px"
	 viewBox="0 0 216 197" style="enable-background:new 0 0 216 197;" xml:space="preserve">
<style type="text/css">
	.st0{display:none;fill:#FFFFFF;}
	.st1{fill:#FFFFFF;}
	.st2{opacity:0.4;fill:#A4AEC7;}
	.st3{opacity:0.7;fill:#A4AEC7;}
	.st4{fill:#F8CC00;}
</style>
<g>
	<g>
		<g>
			<g>
				<path class="st0" d="M202.47,79.09c0.4,0.4,0.55,1,0.35,1.56l-0.04,0.13c-0.2,0.57-0.41,1.16-0.65,1.79
					c-0.3,0.77-1.16,1.16-1.94,0.87c-0.78-0.3-1.16-1.16-0.86-1.94c0.23-0.61,0.43-1.18,0.62-1.72l0.04-0.13
					c0.28-0.78,1.13-1.19,1.91-0.91C202.13,78.81,202.32,78.94,202.47,79.09z"/>
			</g>
			<g>
				<path class="st1" d="M210.17,33.87c0.06,0.06,0.11,0.11,0.15,0.18c0.8,1.1,1.53,2.33,2.17,3.66c0.36,0.75,0.04,1.64-0.7,2
					c-0.75,0.36-1.64,0.04-2-0.7c-0.56-1.17-1.19-2.24-1.89-3.19c-0.49-0.67-0.34-1.61,0.33-2.1
					C208.84,33.28,209.66,33.36,210.17,33.87z M205.9,29.76c0.49,0.49,0.59,1.28,0.19,1.89c-0.46,0.69-1.39,0.88-2.08,0.42
					c-1.09-0.72-2.19-1.34-3.27-1.84c-0.75-0.35-1.08-1.24-0.73-1.99c0.35-0.75,1.24-1.08,1.99-0.73c1.21,0.56,2.45,1.26,3.66,2.06
					C205.75,29.62,205.83,29.68,205.9,29.76z M214.21,42.92c0.19,0.19,0.32,0.42,0.39,0.69c0.27,1.07,0.5,2.18,0.68,3.3
					c0.04,0.26,0.08,0.52,0.11,0.78c0.11,0.82-0.46,1.58-1.28,1.69c-0.82,0.11-1.58-0.46-1.69-1.28c-0.03-0.24-0.07-0.47-0.1-0.71
					c-0.17-1.03-0.38-2.05-0.62-3.03c-0.2-0.8,0.28-1.62,1.08-1.82C213.31,42.39,213.85,42.55,214.21,42.92z M196.73,26.13
					c0.31,0.31,0.49,0.76,0.43,1.24c-0.1,0.82-0.84,1.41-1.67,1.31c-1.21-0.14-2.41-0.13-3.57,0.04c-0.82,0.12-1.58-0.45-1.7-1.27
					c-0.12-0.82,0.45-1.58,1.27-1.7c1.42-0.21,2.89-0.23,4.36-0.05C196.2,25.74,196.5,25.9,196.73,26.13z M215.2,52.78
					c0.29,0.29,0.46,0.7,0.44,1.15c-0.08,1.39-0.25,2.78-0.5,4.14c-0.15,0.81-0.94,1.35-1.75,1.2c-0.81-0.15-1.35-0.94-1.2-1.75
					c0.23-1.23,0.38-2.5,0.46-3.76c0.05-0.83,0.76-1.46,1.58-1.41C214.61,52.37,214.95,52.53,215.2,52.78z M187.18,28.19
					c0.09,0.09,0.16,0.19,0.23,0.3c0.42,0.71,0.19,1.63-0.52,2.06c-1.01,0.6-1.99,1.34-2.91,2.2c-0.6,0.57-1.56,0.55-2.12-0.06
					c-0.03-0.03-0.05-0.05-0.07-0.08c-0.33-0.16-0.61-0.44-0.75-0.81c-0.47-1.22-0.98-2.42-1.52-3.56c-0.35-0.75-0.04-1.64,0.71-2
					c0.75-0.35,1.64-0.03,2,0.71c0.37,0.79,0.74,1.6,1.08,2.43c0.66-0.52,1.35-0.99,2.05-1.41
					C185.96,27.6,186.71,27.71,187.18,28.19z M172.67,13.68c0.56,0.56,0.59,1.48,0.04,2.07c-0.56,0.61-1.51,0.65-2.12,0.09
					c-0.94-0.86-1.93-1.67-2.95-2.41c-0.66-0.49-0.82-1.43-0.33-2.1c0.49-0.67,1.43-0.82,2.1-0.33c1.11,0.81,2.19,1.69,3.21,2.63
					C172.64,13.65,172.66,13.67,172.67,13.68z M176.73,18.05c0.04,0.04,0.08,0.08,0.12,0.13c0.84,1.06,1.64,2.19,2.4,3.36
					c0.45,0.7,0.25,1.62-0.45,2.07c-0.7,0.45-1.62,0.25-2.07-0.45c-0.7-1.09-1.45-2.14-2.23-3.12c-0.51-0.65-0.4-1.59,0.25-2.11
					C175.34,17.46,176.2,17.52,176.73,18.05z M164.52,8.02c0.46,0.46,0.58,1.18,0.26,1.77c-0.39,0.73-1.3,1-2.03,0.61
					c-1.13-0.61-2.29-1.18-3.46-1.7c-0.76-0.33-1.1-1.22-0.77-1.98c0.33-0.76,1.22-1.1,1.98-0.76c1.24,0.55,2.48,1.16,3.68,1.81
					C164.31,7.83,164.42,7.92,164.52,8.02z M155.36,4.18c0.38,0.38,0.54,0.95,0.37,1.5c-0.24,0.79-1.08,1.24-1.87,0.99
					c-1.22-0.37-2.48-0.71-3.74-0.99c-0.81-0.18-1.32-0.98-1.14-1.79c0.18-0.81,0.98-1.32,1.79-1.14c1.33,0.3,2.67,0.65,3.96,1.05
					C154.98,3.88,155.19,4.01,155.36,4.18z M213.06,62.46c0.41,0.41,0.56,1.04,0.33,1.62c-0.38,0.97-0.82,1.93-1.31,2.86
					c-0.16,0.31-0.32,0.61-0.49,0.91c-0.4,0.72-1.32,0.98-2.04,0.58c-0.72-0.41-0.98-1.32-0.58-2.04c0.15-0.27,0.3-0.55,0.44-0.82
					c0.44-0.85,0.84-1.72,1.18-2.59c0.31-0.77,1.18-1.15,1.95-0.84C212.75,62.2,212.93,62.32,213.06,62.46z M185.44,35.83
					c0.18,0.18,0.31,0.4,0.38,0.66c0.36,1.28,0.69,2.66,0.96,3.98c0.17,0.81-0.36,1.6-1.17,1.77c-0.81,0.17-1.61-0.36-1.77-1.17
					c-0.26-1.25-0.57-2.56-0.91-3.77c-0.22-0.8,0.24-1.63,1.04-1.85C184.51,35.3,185.06,35.46,185.44,35.83z M180.27,35.22
					c0.48,0.48,0.59,1.24,0.22,1.85c-0.65,1.06-1.22,2.18-1.7,3.33c-0.32,0.77-1.19,1.13-1.96,0.81c-0.76-0.31-1.13-1.19-0.81-1.96
					c0.54-1.3,1.18-2.56,1.91-3.76c0.43-0.71,1.36-0.93,2.06-0.49C180.1,35.07,180.19,35.14,180.27,35.22z M145.62,2.19
					c0.31,0.31,0.48,0.75,0.43,1.22c-0.09,0.82-0.83,1.42-1.65,1.33c-1.26-0.14-2.56-0.24-3.87-0.29c-0.83-0.03-1.47-0.73-1.44-1.56
					c0.03-0.83,0.73-1.47,1.56-1.44c1.37,0.06,2.74,0.16,4.07,0.3C145.08,1.8,145.39,1.96,145.62,2.19z M187.18,45.63
					c0.25,0.25,0.42,0.59,0.44,0.98c0.09,1.62,0.04,3.06-0.15,4.29c-0.13,0.82-0.89,1.38-1.71,1.25c-0.82-0.13-1.38-0.89-1.25-1.71
					c0.16-1.03,0.2-2.26,0.12-3.66c-0.05-0.83,0.59-1.54,1.41-1.58C186.48,45.17,186.89,45.34,187.18,45.63z M207.93,70.93
					c0.55,0.55,0.59,1.45,0.07,2.04c-0.43,0.49-0.88,0.98-1.34,1.43c-0.2,0.2-0.4,0.39-0.6,0.59c-0.08,0.08-0.16,0.16-0.24,0.23
					c-0.2,0.2-0.39,0.4-0.56,0.61c-0.54,0.63-1.49,0.7-2.11,0.16c-0.63-0.55-0.7-1.49-0.16-2.11c0.22-0.26,0.46-0.52,0.72-0.78
					c0.1-0.1,0.2-0.2,0.31-0.3c0.18-0.17,0.36-0.35,0.54-0.53c0.42-0.42,0.82-0.84,1.2-1.28c0.54-0.62,1.49-0.69,2.12-0.14
					C207.88,70.88,207.9,70.91,207.93,70.93z M135.69,1.94c0.25,0.25,0.42,0.6,0.44,0.98c0.04,0.83-0.59,1.53-1.42,1.58
					c-1.27,0.07-2.58,0.18-3.88,0.32c-0.82,0.09-1.56-0.5-1.66-1.33c-0.09-0.82,0.5-1.56,1.33-1.66c1.36-0.15,2.73-0.26,4.05-0.33
					C134.99,1.48,135.4,1.65,135.69,1.94z M176.92,44.52c0.31,0.31,0.49,0.77,0.43,1.24c-0.16,1.29-0.16,2.49,0.01,3.56
					c0.13,0.82-0.43,1.59-1.25,1.71c-0.82,0.13-1.58-0.43-1.71-1.25c-0.21-1.34-0.22-2.81-0.02-4.38c0.1-0.82,0.85-1.41,1.67-1.31
					C176.38,44.13,176.69,44.29,176.92,44.52z M183.75,54.11c0.2,0.2,0.35,0.47,0.41,0.77c0.16,0.81-0.37,1.6-1.18,1.76
					c-0.99,0.19-2.11,0.12-3.33-0.21c-0.55-0.15-1.07-0.37-1.55-0.64c-0.72-0.41-0.97-1.32-0.56-2.04c0.41-0.72,1.32-0.97,2.04-0.57
					c0.27,0.15,0.56,0.27,0.87,0.36c0.76,0.21,1.42,0.26,1.95,0.16C182.91,53.6,183.41,53.77,183.75,54.11z M125.82,3.15
					c0.21,0.21,0.35,0.47,0.41,0.78c0.15,0.81-0.38,1.6-1.2,1.75c-1.26,0.24-2.54,0.51-3.83,0.82c-0.81,0.19-1.62-0.31-1.8-1.11
					c-0.19-0.81,0.31-1.61,1.11-1.81c1.33-0.31,2.66-0.6,3.96-0.84C124.99,2.64,125.48,2.82,125.82,3.15z M116.16,5.54
					c0.17,0.17,0.3,0.38,0.37,0.62c0.24,0.79-0.21,1.63-1,1.87c-1.24,0.38-2.49,0.78-3.74,1.21c-0.78,0.27-1.64-0.15-1.91-0.93
					c-0.27-0.78,0.15-1.64,0.93-1.91c1.28-0.44,2.57-0.86,3.84-1.24C115.22,5,115.79,5.16,116.16,5.54z M106.78,8.86
					c0.14,0.14,0.25,0.31,0.33,0.5c0.31,0.77-0.07,1.64-0.83,1.95c-1.22,0.49-2.43,1-3.63,1.52c-0.76,0.33-1.65-0.01-1.97-0.77
					c-0.33-0.76,0.01-1.64,0.77-1.98c1.23-0.54,2.47-1.06,3.72-1.56C105.73,8.3,106.36,8.45,106.78,8.86z M97.68,12.91
					c0.11,0.11,0.21,0.25,0.29,0.4c0.36,0.74,0.05,1.64-0.69,2.01c-0.51,0.25-1.01,0.5-1.52,0.75c-0.66,0.33-1.31,0.67-1.96,1.03
					c-0.73,0.4-1.64,0.14-2.04-0.59c-0.4-0.73-0.14-1.64,0.59-2.04c0.68-0.38,1.37-0.74,2.07-1.09c0.51-0.26,1.03-0.51,1.54-0.76
					C96.55,12.33,97.24,12.47,97.68,12.91z M89.07,17.89c0.06,0.06,0.12,0.13,0.17,0.2c0.48,0.68,0.31,1.61-0.37,2.09
					c-1.06,0.74-2.1,1.53-3.09,2.34c-0.64,0.52-1.59,0.43-2.11-0.22c-0.52-0.64-0.43-1.59,0.22-2.11c1.05-0.85,2.14-1.68,3.26-2.47
					C87.75,17.3,88.57,17.38,89.07,17.89z M81.47,24.3c0.58,0.58,0.59,1.53,0,2.12c-0.91,0.92-1.8,1.88-2.63,2.85
					c-0.54,0.63-1.49,0.7-2.11,0.16c-0.62-0.53-0.7-1.49-0.16-2.12c0.88-1.02,1.81-2.03,2.77-3.01
					C79.93,23.72,80.88,23.71,81.47,24.3C81.47,24.3,81.47,24.3,81.47,24.3z M75.15,31.97c0.5,0.5,0.59,1.3,0.18,1.9
					c-0.73,1.07-1.41,2.17-2.05,3.28c-0.41,0.72-1.33,0.97-2.05,0.56c-0.72-0.41-0.97-1.33-0.56-2.05c0.67-1.17,1.4-2.34,2.17-3.48
					c0.47-0.69,1.4-0.86,2.08-0.4C75.01,31.84,75.08,31.9,75.15,31.97z M70.54,40.76c0.4,0.4,0.55,1,0.35,1.56
					c-0.41,1.17-0.77,2.4-1.06,3.66c-0.19,0.81-0.99,1.31-1.8,1.12c-0.81-0.19-1.31-0.99-1.12-1.8c0.32-1.36,0.71-2.7,1.16-3.98
					c0.28-0.78,1.13-1.19,1.91-0.91C70.2,40.48,70.39,40.61,70.54,40.76z M68.53,50.48c0.3,0.3,0.47,0.72,0.44,1.18
					c-0.1,1.26-0.14,2.55-0.12,3.84c0.01,0.83-0.65,1.51-1.48,1.52c-0.83,0.01-1.51-0.65-1.52-1.48c-0.02-1.38,0.02-2.77,0.13-4.12
					c0.06-0.83,0.79-1.44,1.61-1.38C67.96,50.07,68.29,50.24,68.53,50.48z M127.53,112.4c0.47,0.47,0.94,0.96,1.4,1.45
					c0.57,0.61,0.53,1.55-0.07,2.12c-0.61,0.57-1.55,0.52-2.12-0.07c-0.88-0.94-1.8-1.86-2.74-2.74c-0.6-0.57-0.64-1.51-0.07-2.12
					c0.57-0.61,1.51-0.64,2.12-0.07C126.54,111.43,127.04,111.91,127.53,112.4z M121.53,107.13c0.53,0.53,0.59,1.37,0.12,1.98
					c-0.51,0.66-1.45,0.77-2.11,0.27c-0.95-0.74-1.95-1.47-2.96-2.17l-0.19-0.13c-0.68-0.47-0.85-1.4-0.38-2.09
					c0.47-0.68,1.4-0.85,2.09-0.38l0.2,0.14c1.05,0.73,2.09,1.49,3.08,2.26C121.43,107.04,121.48,107.09,121.53,107.13z
					 M132.71,118.4c0.05,0.05,0.1,0.11,0.15,0.17c0.82,1.12,1.59,2.26,2.29,3.41c0.43,0.71,0.21,1.63-0.5,2.06
					c-0.71,0.43-1.63,0.2-2.06-0.5c-0.65-1.07-1.38-2.15-2.15-3.19c-0.49-0.67-0.35-1.61,0.32-2.1
					C131.36,117.81,132.19,117.88,132.71,118.4z M113.24,101.63c0.46,0.46,0.58,1.2,0.25,1.8c-0.41,0.72-1.32,0.98-2.04,0.57
					c-1.07-0.6-2.2-1.21-3.46-1.86c-0.73-0.38-1.03-1.28-0.65-2.02c0.38-0.74,1.28-1.03,2.02-0.65c1.29,0.66,2.45,1.29,3.56,1.91
					C113.04,101.46,113.14,101.54,113.24,101.63z M137.66,127.01c0.13,0.13,0.24,0.29,0.32,0.47c0.52,1.21,0.97,2.46,1.36,3.7
					l-1.38,0.62l-1.43,0.44c0,0-0.03-0.1-0.03-0.1c-0.38-1.23-0.8-2.38-1.28-3.5c-0.32-0.76,0.03-1.64,0.79-1.97
					C136.6,126.44,137.24,126.59,137.66,127.01z M68.9,60.41c0.22,0.22,0.37,0.51,0.42,0.84c0.19,1.27,0.44,2.54,0.74,3.78
					c0.2,0.8-0.3,1.62-1.1,1.81c-0.81,0.2-1.62-0.3-1.81-1.1c-0.32-1.32-0.59-2.68-0.8-4.04c-0.12-0.82,0.44-1.58,1.26-1.71
					C68.11,59.91,68.58,60.08,68.9,60.41z M104.37,97.1c0.44,0.44,0.57,1.12,0.29,1.71c-0.36,0.75-1.25,1.06-2,0.71l-3.6-1.71
					c-0.75-0.35-1.07-1.25-0.71-2c0.36-0.75,1.25-1.07,2-0.71l3.6,1.71C104.12,96.89,104.25,96.99,104.37,97.1z M140.42,136.55
					c0.21,0.21,0.36,0.48,0.42,0.8c0.24,1.33,0.42,2.7,0.56,4.06c0.08,0.82-0.52,1.56-1.35,1.64c-0.83,0.08-1.56-0.52-1.64-1.35
					c-0.13-1.28-0.3-2.57-0.53-3.83c-0.14-0.82,0.4-1.59,1.22-1.74C139.6,136.04,140.09,136.21,140.42,136.55z M95.4,92.78
					c0.45,0.45,0.58,1.14,0.28,1.74c-0.37,0.74-1.28,1.04-2.02,0.66c-1.3-0.66-2.47-1.27-3.57-1.88c-0.73-0.4-0.99-1.31-0.59-2.04
					c0.4-0.73,1.31-0.99,2.04-0.59c1.07,0.59,2.21,1.19,3.48,1.83C95.17,92.58,95.29,92.67,95.4,92.78z M71.5,70
					c0.14,0.14,0.25,0.31,0.33,0.5c0.48,1.2,1.02,2.36,1.61,3.47c0.39,0.73,0.11,1.64-0.62,2.03c-0.73,0.39-1.64,0.11-2.03-0.62
					c-0.63-1.2-1.22-2.46-1.74-3.75c-0.31-0.77,0.06-1.64,0.83-1.95C70.45,69.44,71.08,69.59,71.5,70z M86.76,87.86
					c0.49,0.49,0.59,1.28,0.19,1.89c-0.46,0.69-1.39,0.88-2.08,0.43c-1.17-0.77-2.3-1.57-3.33-2.37c-0.66-0.5-0.78-1.45-0.27-2.1
					c0.51-0.66,1.45-0.78,2.1-0.27c0.98,0.75,2.04,1.51,3.15,2.24C86.61,87.73,86.69,87.79,86.76,87.86z M76.42,78.61
					c0.04,0.04,0.08,0.09,0.12,0.14c0.77,0.98,1.62,1.95,2.52,2.87c0.58,0.59,0.57,1.54-0.02,2.12c-0.59,0.58-1.53,0.57-2.11-0.01
					c0,0-0.01-0.01-0.01-0.01c-0.97-1-1.89-2.04-2.73-3.11c-0.51-0.65-0.4-1.59,0.25-2.11C75.03,78.02,75.89,78.08,76.42,78.61z
					 M141.2,146.46c0.28,0.28,0.45,0.67,0.44,1.09c-0.03,1.37-0.11,2.75-0.24,4.1c-0.08,0.82-0.82,1.42-1.64,1.34
					c-0.82-0.08-1.43-0.82-1.34-1.64c0.13-1.27,0.21-2.56,0.23-3.85c0.02-0.83,0.7-1.49,1.53-1.47
					C140.57,146.02,140.93,146.19,141.2,146.46z M139.97,156.32c0.36,0.36,0.52,0.88,0.4,1.41c-0.32,1.36-0.71,2.69-1.15,3.97
					c-0.27,0.78-1.12,1.2-1.91,0.93c-0.78-0.27-1.2-1.12-0.93-1.91c0.41-1.18,0.76-2.42,1.06-3.68c0.19-0.81,1-1.3,1.81-1.11
					C139.54,155.99,139.78,156.13,139.97,156.32z M136.48,165.61c0.46,0.46,0.58,1.18,0.26,1.78c-0.13,0.25-0.27,0.49-0.41,0.74
					c-0.55,0.96-1.19,1.9-1.89,2.8c-0.51,0.65-1.45,0.77-2.11,0.26c-0.65-0.5-0.77-1.45-0.26-2.11c0.62-0.79,1.18-1.61,1.65-2.45
					c0.13-0.22,0.25-0.45,0.38-0.68c0.4-0.73,1.31-1,2.03-0.6C136.27,165.42,136.38,165.51,136.48,165.61z M130.14,173.2
					c0.03,0.03,0.06,0.06,0.09,0.1c0.53,0.64,0.45,1.58-0.19,2.11c-1,0.83-2.11,1.67-3.3,2.48c-0.69,0.47-1.62,0.29-2.08-0.4
					c-0.47-0.69-0.29-1.62,0.4-2.08c1.11-0.76,2.14-1.53,3.06-2.3C128.72,172.6,129.59,172.65,130.14,173.2z M121.84,178.67
					c0.1,0.1,0.19,0.22,0.26,0.34c0.4,0.73,0.13,1.64-0.6,2.03c-1.1,0.6-2.27,1.2-3.59,1.86c-0.74,0.37-1.64,0.07-2.01-0.68
					c-0.37-0.74-0.06-1.64,0.68-2.01c1.28-0.64,2.42-1.23,3.49-1.8C120.66,178.09,121.39,178.21,121.84,178.67z M112.91,183.08
					c0.12,0.12,0.22,0.26,0.3,0.42c0.35,0.75,0.03,1.64-0.72,1.99l-0.01,0.01c-1.22,0.57-2.42,1.13-3.57,1.69
					c-0.75,0.36-1.64,0.05-2-0.7c-0.36-0.75-0.05-1.64,0.7-2c1.17-0.56,2.37-1.13,3.61-1.71
					C111.8,182.51,112.48,182.65,112.91,183.08z M103.87,187.23c0.14,0.14,0.25,0.3,0.33,0.5c0.31,0.77-0.06,1.64-0.83,1.95
					c-1.24,0.5-2.52,0.99-3.8,1.43c-0.78,0.27-1.64-0.14-1.91-0.92c-0.27-0.78,0.14-1.64,0.92-1.91c1.23-0.43,2.46-0.89,3.66-1.38
					C102.82,186.67,103.46,186.82,103.87,187.23z M94.43,190.38c0.18,0.18,0.32,0.41,0.39,0.68c0.21,0.8-0.27,1.62-1.07,1.83
					c-1.31,0.35-2.64,0.66-3.95,0.93c-0.81,0.17-1.61-0.36-1.77-1.17c-0.17-0.81,0.35-1.6,1.17-1.77c1.26-0.26,2.54-0.56,3.8-0.89
					C93.52,189.85,94.07,190.01,94.43,190.38z M84.66,192.25c0.23,0.23,0.39,0.53,0.43,0.88c0.1,0.82-0.49,1.57-1.31,1.67
					c-1.35,0.16-2.72,0.29-4.05,0.37c-0.83,0.05-1.54-0.58-1.59-1.41c-0.05-0.83,0.58-1.54,1.41-1.59c1.28-0.08,2.58-0.2,3.88-0.35
					C83.89,191.76,84.35,191.94,84.66,192.25z M74.72,192.69c0.28,0.28,0.45,0.68,0.44,1.11c-0.03,0.83-0.72,1.48-1.55,1.45
					c-1.36-0.05-2.73-0.14-4.07-0.27c-0.82-0.08-1.43-0.82-1.34-1.64c0.08-0.82,0.82-1.43,1.64-1.34c1.27,0.13,2.58,0.22,3.87,0.26
					C74.11,192.27,74.46,192.43,74.72,192.69z M64.85,191.52c0.35,0.35,0.52,0.85,0.41,1.37c-0.17,0.81-0.96,1.33-1.77,1.16
					c-1.34-0.28-2.67-0.61-3.97-0.98c-0.79-0.23-1.26-1.06-1.03-1.86c0.23-0.8,1.06-1.26,1.86-1.03c1.23,0.35,2.49,0.67,3.75,0.93
					C64.39,191.17,64.65,191.32,64.85,191.52z M55.36,188.58c0.42,0.42,0.57,1.06,0.32,1.64c-0.32,0.76-1.2,1.13-1.96,0.81
					c-1.26-0.53-2.51-1.11-3.72-1.73c-0.73-0.38-1.03-1.28-0.65-2.02c0.38-0.74,1.28-1.03,2.02-0.65c1.13,0.58,2.31,1.13,3.5,1.63
					C55.06,188.34,55.23,188.45,55.36,188.58z"/>
			</g>
			<g>
				<path class="st1" d="M46.5,183.78c0.5,0.5,0.59,1.3,0.18,1.9c-0.47,0.68-1.4,0.86-2.08,0.39c-0.57-0.38-1.12-0.78-1.68-1.19
					c-0.66-0.49-0.81-1.43-0.31-2.1c0.49-0.67,1.43-0.8,2.1-0.31c0.52,0.39,1.05,0.76,1.58,1.13
					C46.36,183.65,46.44,183.71,46.5,183.78z"/>
			</g>
		</g>
	</g>
	<g>
		<g>
			<g>
				<polygon class="st1" points="42.26,182.77 1.27,143.38 44.35,168.69 				"/>
				<polygon class="st2" points="42.26,182.77 1.27,143.38 44.35,168.69 				"/>
				<path class="st1" d="M1.27,143.38c0.28,0.62,26.54,32.76,26.54,32.76l4.95-2.16l9.8-4.27l-0.31,13.04l4.93-15.68l13.92-6
					L1.27,143.38z"/>
				<polygon class="st3" points="42.26,182.77 47.19,167.09 1.27,143.38 42.56,169.72 				"/>
			</g>
			<polygon class="st4" points="6.45,148.72 27.77,174.15 39.56,169.47 28.83,172.16 			"/>
		</g>
	</g>
</g>
</svg>
