<svg version="1.2" baseProfile="tiny-ps" xmlns="http://www.w3.org/2000/svg" viewBox="0 0 424 424" width="424" height="424">
	<title>Submit-solutions-svg</title>
	<style>
		tspan { white-space:pre }
		.shp0 { fill: #f8fafb } 
		.shp1 { fill: #f0f0f1 } 
		.shp2 { fill: #ffffff } 
		.shp3 { fill: #43b97e } 
		.shp4 { fill: #72caf2 } 
		.shp5 { fill: #2ca9e0 } 
		.shp6 { fill: none } 
		.shp7 { fill: #ffe00c } 
	</style>
	<g id="Layer">
		<g id="Layer">
			<path id="Layer" class="shp0" d="M419.23 212.84C419.23 325.37 328 416.6 215.47 416.6C102.94 416.6 11.71 325.37 11.71 212.84C11.71 100.31 102.94 9.08 215.47 9.08C328 9.08 419.23 100.31 419.23 212.84Z" />
			<path id="Layer" class="shp1" d="M215.47 378.09C124.08 378.09 50.22 304.22 50.22 212.84C50.22 121.46 124.08 47.59 215.47 47.59C306.85 47.59 380.72 121.46 380.72 212.84C380.72 304.22 306.85 378.09 215.47 378.09Z" />
			<path id="Layer" class="shp2" d="M351.49 155.88L348.84 153.23C341.16 145.54 328.65 145.54 320.97 153.23L318.38 155.82L313.32 160.87L300.22 173.98L300.22 146.76C312.59 145.66 322.32 135.24 322.32 122.59C322.32 109.2 311.43 98.31 298.05 98.31L133.67 98.31C120.28 98.31 109.39 109.2 109.39 122.59L109.39 315.87L130.09 315.87L130.09 340.63L300.22 340.63L300.22 235.02L343.85 191.39L347.67 187.57L348.9 186.34L351.49 183.75C355.21 180.03 357.26 175.08 357.26 169.81C357.26 164.55 355.21 159.6 351.49 155.88Z" />
			<path id="Layer" class="shp3" d="M186.45 379.38C186.45 384.04 182.66 387.83 177.99 387.83C173.32 387.83 169.54 384.04 169.54 379.38C169.54 374.7 173.32 370.92 177.99 370.92C182.66 370.92 186.45 374.7 186.45 379.38Z" />
			<path id="Layer" class="shp3" d="M351.48 154.27C337.1 144.85 321.24 157.74 321.24 157.74L321.74 159.72L346.03 186.49C346.03 186.49 365.86 163.69 351.48 154.27ZM129.39 99.24C117.49 99.24 109.56 110.15 109.56 127C109.56 143.86 109.56 314.39 109.56 314.39L130.38 314.39L130.38 143.86C130.38 143.86 153.18 131.96 153.18 120.06C153.18 108.16 141.28 99.24 129.39 99.24ZM70.91 80.88C66.24 80.88 62.46 84.67 62.46 89.34C62.46 94.01 66.24 97.79 70.91 97.79C75.58 97.79 79.37 94.01 79.37 89.34C79.37 84.67 75.58 80.88 70.91 80.88ZM393.12 251.27C388.44 251.27 384.66 255.05 384.66 259.72C384.66 264.39 388.44 268.18 393.12 268.18C397.78 268.18 401.57 264.39 401.57 259.72C401.57 255.05 397.79 251.27 393.12 251.27ZM46.09 275.06C41.42 275.06 37.63 278.85 37.63 283.52C37.63 288.19 41.42 291.97 46.09 291.97C50.76 291.97 54.54 288.19 54.54 283.52C54.54 278.85 50.76 275.06 46.09 275.06Z" />
			<g id="Layer">
				<path id="Layer" class="shp4" d="M229.33 254.71L218.18 286.68L253.13 278.5L229.33 254.71Z" />
				<path id="Layer" class="shp5" d="M156.62 180.74C154.6 180.74 152.96 179.1 152.96 177.08C152.96 175.06 154.6 173.42 156.62 173.42C158.64 173.42 160.27 175.06 160.27 177.08C160.27 179.1 158.64 180.74 156.62 180.74Z" />
				<path id="Layer" class="shp5" d="M156.62 203.39C154.6 203.39 152.96 201.75 152.96 199.73C152.96 197.71 154.6 196.07 156.62 196.07C158.64 196.07 160.27 197.71 160.27 199.73C160.27 201.75 158.64 203.39 156.62 203.39Z" />
				<path id="Layer" class="shp5" d="M156.62 226.04C154.6 226.04 152.96 224.4 152.96 222.38C152.96 220.36 154.6 218.72 156.62 218.72C158.64 218.72 160.27 220.36 160.27 222.38C160.27 224.4 158.64 226.04 156.62 226.04Z" />
				<path id="Layer" class="shp6" d="M275.96 264.01L275.96 263L287.69 263L287.69 274.67L275.96 274.67L275.96 271.34L266.28 271.34L256.4 281.22L238.04 286.66L275.96 286.66L275.96 283.49L288.03 283.49L288.03 296.48L275.96 296.48L275.96 293.98L156.56 293.98L156.56 286.66L156.56 271.33L156.56 264.01L156.56 248.69L156.56 241.36L156.56 226.04L156.56 218.72L156.56 203.39L156.56 196.07L279.04 196.07L294.92 180.19L294.92 145.1L135.35 145.1L135.35 336.2L294.92 336.2L294.92 242.7L273.61 264.01L275.96 264.01L275.96 264.01ZM156.56 173.42L276.2 173.42L276.2 180.74L156.56 180.74L156.56 173.42ZM276.2 314.22L156.56 314.22L156.56 306.9L276.2 306.9L276.2 314.22Z" />
				<path id="Layer" class="shp6" d="M233.75 241.36L249.07 226.04L156.56 226.04L156.56 241.36L233.75 241.36Z" />
				<path id="Layer" class="shp6" d="M214.27 286.66L218.81 271.33L156.56 271.33L156.56 286.66L214.27 286.66Z" />
				<path id="Layer" class="shp6" d="M220.98 264.01L225.15 249.96L226.43 248.69L156.56 248.69L156.56 264.01L220.98 264.01Z" />
				<path id="Layer" class="shp6" d="M300.02 137.78C309.69 137.78 317.55 129.92 317.55 120.25C317.55 110.58 309.69 102.71 300.02 102.71L149.29 102.71C153.78 107.21 156.55 113.41 156.55 120.25C156.55 127.08 153.77 133.28 149.29 137.78L300.02 137.78Z" />
				<path id="Layer" class="shp6" d="M149.23 120.25C149.23 110.58 141.36 102.71 131.69 102.71C122.02 102.71 114.15 110.58 114.15 120.25L114.15 310.85L128.03 310.85L128.03 137.78L131.69 137.78C141.36 137.78 149.23 129.92 149.23 120.25Z" />
				<path id="Layer" class="shp6" d="M256.4 218.72L271.72 203.39L156.56 203.39L156.56 218.72L256.4 218.72Z" />
				<path id="Layer" class="shp6" d="M247.53 276.21L230.15 258.83L222.84 283.53L247.53 276.21Z" />
				<path id="Layer" class="shp6" d="M320.84 164.63L341.73 185.53L254.47 272.79L233.57 251.89L320.84 164.63Z" />
				<path id="Layer" class="shp6" d="M346.85 156.8C341.84 151.79 333.68 151.79 328.67 156.8L326.02 159.45L346.91 180.34L349.56 177.7C351.99 175.27 353.33 172.04 353.33 168.6C353.33 165.17 351.99 161.94 349.56 159.51L346.85 156.8Z" />
				<path id="Layer" class="shp3" d="M156.56 173.42L276.2 173.42L276.2 180.74L156.56 180.74L156.56 173.42Z" />
				<path id="Layer" class="shp3" d="M156.56 306.9L276.2 306.9L276.2 314.22L156.56 314.22L156.56 306.9Z" />
				<path id="Layer" fill-rule="evenodd" class="shp7" d="M360.65 168.61C360.65 174 358.55 179.07 354.74 182.88L352.09 185.53L350.83 186.79L346.91 190.7L302.24 235.38L302.24 343.53L128.03 343.53L128.03 318.17L106.83 318.17L106.83 120.25C106.83 106.54 117.98 95.39 131.69 95.39L300.02 95.39C313.72 95.39 324.88 106.54 324.88 120.25C324.88 133.2 314.91 143.87 302.24 145L302.24 172.87L315.66 159.45L320.84 154.27L323.49 151.62C331.36 143.75 344.16 143.75 352.03 151.62L354.74 154.33C358.55 158.15 360.65 163.21 360.65 168.61ZM156.55 120.25C156.55 127.08 153.77 133.28 149.29 137.78L300.02 137.78C309.69 137.78 317.55 129.92 317.55 120.25C317.55 110.58 309.69 102.71 300.02 102.71L149.29 102.71C153.78 107.21 156.55 113.41 156.55 120.25ZM131.69 137.78C141.36 137.78 149.23 129.92 149.23 120.25C149.23 110.58 141.36 102.71 131.69 102.71C122.02 102.71 114.15 110.58 114.15 120.25L114.15 310.85L128.03 310.85L128.03 137.78L131.69 137.78ZM294.92 336.2L294.92 242.7L273.61 264.01L275.96 264.01L275.96 271.33L266.29 271.33L256.4 281.21L238.04 286.66L275.97 286.66L275.97 293.98L156.56 293.98L156.56 286.66L214.27 286.66L218.82 271.33L156.57 271.33L156.57 264.01L220.99 264.01L225.15 249.96L226.43 248.68L156.56 248.68L156.56 241.36L233.75 241.36L249.07 226.04L156.56 226.04L156.56 218.71L256.4 218.71L271.72 203.39L156.56 203.39L156.56 196.07L279.04 196.07L294.92 180.19L294.92 145.1L135.35 145.1L135.35 336.2L294.92 336.2ZM222.84 283.53L247.53 276.21L230.15 258.83L222.84 283.53ZM341.74 185.52L320.84 164.63L233.57 251.89L254.47 272.79L341.74 185.52ZM353.33 168.6C353.33 165.17 352 161.94 349.56 159.51L346.86 156.8C341.84 151.79 333.68 151.79 328.67 156.8L326.02 159.45L346.92 180.34L349.56 177.7C351.99 175.27 353.33 172.04 353.33 168.6Z" />
				<path id="Layer" class="shp7" d="M275.94 180.72C273.91 180.72 272.28 179.09 272.28 177.06C272.28 175.04 273.91 173.41 275.94 173.41C277.96 173.41 279.59 175.04 279.59 177.06C279.59 179.09 277.96 180.72 275.94 180.72Z" />
			</g>
		</g>
		<g id="Layer">
			<path id="Layer" class="shp2" d="M142.87 232.51C123.27 232.51 107.43 216.67 107.43 197.07C107.43 177.46 123.27 161.62 142.87 161.62C162.48 161.62 178.32 177.46 178.32 197.07C178.32 216.67 162.48 232.51 142.87 232.51Z" />
			<path id="Layer" fill-rule="evenodd" class="shp7" d="M377.99 283.72C370.76 284.62 364.97 290.16 363.7 297.27C362.43 290.16 356.64 284.62 349.41 283.72C356.64 282.81 362.43 277.27 363.7 270.17C364.97 277.28 370.76 282.81 377.99 283.72ZM160.27 245.03C160.27 247.05 158.64 248.68 156.62 248.68C154.6 248.68 152.96 247.05 152.96 245.03C152.96 243.01 154.6 241.37 156.62 241.37C158.64 241.37 160.27 243.01 160.27 245.03ZM183.36 195.82C183.36 217.75 165.58 235.53 143.65 235.53C121.71 235.53 103.93 217.75 103.93 195.82C103.93 173.88 121.71 156.1 143.65 156.1C165.58 156.1 183.36 173.88 183.36 195.82ZM176.42 195.82C176.42 186.75 172.76 178.58 166.82 172.64C160.88 166.7 152.71 163.04 143.65 163.04C134.59 163.04 126.41 166.7 120.47 172.64C114.54 178.58 110.87 186.75 110.87 195.82C110.87 204.88 114.54 213.05 120.47 218.99C126.41 224.93 134.59 228.59 143.65 228.59C152.71 228.59 160.88 224.93 166.82 218.99C172.76 213.05 176.42 204.88 176.42 195.82ZM160.27 267.67C160.27 269.69 158.64 271.33 156.62 271.33C154.6 271.33 152.96 269.69 152.96 267.67C152.96 265.65 154.6 264.01 156.62 264.01C158.64 264.01 160.27 265.65 160.27 267.67ZM143.84 195.38L143.84 179.05L150.78 179.05L150.78 198.85L150.76 198.85L150.76 202.32L120.6 202.32L120.6 195.38L143.84 195.38ZM270.1 49.72C283.68 48.03 294.55 37.63 296.94 24.27C299.33 37.63 310.2 48.03 323.78 49.72C310.2 51.42 299.33 61.82 296.94 75.17C294.55 61.82 283.69 51.42 270.1 49.72ZM160.27 290.32C160.27 292.34 158.64 293.97 156.62 293.97C154.6 293.97 152.96 292.34 152.96 290.32C152.96 288.3 154.6 286.66 156.62 286.66C158.64 286.66 160.27 288.3 160.27 290.32ZM77.15 247.82C77.15 255.12 71.23 261.04 63.94 261.04C56.64 261.04 50.73 255.12 50.73 247.82C50.73 240.53 56.64 234.61 63.94 234.61C71.23 234.61 77.15 240.53 77.15 247.82ZM160.27 310.56C160.27 312.58 158.64 314.21 156.62 314.21C154.6 314.21 152.96 312.58 152.96 310.56C152.96 308.54 154.6 306.9 156.62 306.9C158.64 306.9 160.27 308.54 160.27 310.56ZM308.15 210.26C308.15 212.27 306.52 213.91 304.5 213.91C302.48 213.91 300.84 212.27 300.84 210.26C300.84 208.24 302.48 206.6 304.5 206.6C306.52 206.6 308.15 208.24 308.15 210.26ZM300.01 115.22L263.88 115.22L263.88 115.2C261.92 115.14 260.35 113.53 260.35 111.55C260.35 109.58 261.92 107.97 263.88 107.9L263.88 107.89L300.01 107.89C306.82 107.89 312.37 113.43 312.37 120.24C312.37 122.2 311.89 124.15 311 125.88L311 125.88C310.38 127.02 309.17 127.8 307.78 127.8C305.76 127.8 304.12 126.16 304.12 124.14C304.12 123.57 304.26 123.02 304.5 122.54L304.49 122.53C304.86 121.82 305.04 121.05 305.04 120.25C305.04 117.47 302.79 115.22 300.01 115.22ZM221.47 407.42C221.47 414.71 215.55 420.63 208.26 420.63C200.96 420.63 195.05 414.71 195.05 407.42C195.05 400.12 200.96 394.21 208.26 394.21C215.56 394.21 221.47 400.12 221.47 407.42ZM324.67 175.8L334.4 185.53L314.42 205.5C313.75 206.25 312.78 206.72 311.7 206.72C309.68 206.72 308.05 205.09 308.05 203.06C308.05 202.1 308.42 201.23 309.03 200.58L309.01 200.56L324.04 185.53L319.49 180.97L319.5 180.96C318.86 180.3 318.46 179.4 318.46 178.41C318.46 176.39 320.1 174.76 322.12 174.76C323.11 174.76 324.01 175.15 324.67 175.8L324.67 175.8ZM279.6 290.32C279.6 292.34 277.96 293.97 275.94 293.97C273.93 293.97 272.29 292.34 272.29 290.32C272.29 288.3 273.93 286.66 275.94 286.66C277.96 286.66 279.6 288.3 279.6 290.32ZM242.42 30.67C235.12 30.67 229.21 24.75 229.21 17.46C229.21 10.16 235.12 4.25 242.42 4.25C249.72 4.25 255.63 10.16 255.63 17.46C255.63 24.75 249.72 30.67 242.42 30.67ZM272.17 267.69C272.17 265.68 273.81 264.04 275.82 264.04C277.84 264.04 279.48 265.67 279.48 267.69C279.48 269.71 277.85 271.35 275.82 271.35C273.81 271.35 272.17 269.71 272.17 267.69ZM256.85 111.51C256.85 113.49 255.28 115.09 253.32 115.16L253.32 115.22L244.22 115.22C244.22 115.22 244.21 115.21 244.19 115.21C244.12 115.21 244.06 115.22 243.99 115.22C241.97 115.22 240.33 113.58 240.33 111.56C240.33 109.55 241.97 107.91 243.99 107.91C244.03 107.91 244.07 107.91 244.12 107.92C244.18 107.9 244.22 107.9 244.22 107.9L252.66 107.9C252.84 107.87 253.02 107.85 253.2 107.85C255.22 107.85 256.85 109.49 256.85 111.51ZM279.53 310.55C279.53 312.57 277.9 314.21 275.88 314.21C273.86 314.21 272.22 312.57 272.22 310.55C272.22 308.53 273.86 306.89 275.88 306.89C277.9 306.89 279.53 308.53 279.53 310.55Z" />
		</g>
	</g>
</svg>